<mxfile host="Electron" modified="2024-03-12T15:50:19.577Z" agent="Mozilla/5.0 (X11; Linux x86_64) AppleWebKit/537.36 (KHTML, like Gecko) draw.io/23.0.2 Chrome/120.0.6099.109 Electron/28.1.0 Safari/537.36" etag="nt_41mYJcOcK5l6-uR1s" version="23.0.2" type="device">
  <diagram name="Page-1" id="HsG-FZkIQoNZsME3UOhi">
    <mxGraphModel dx="1670" dy="1003" grid="1" gridSize="10" guides="1" tooltips="1" connect="1" arrows="1" fold="1" page="1" pageScale="1" pageWidth="1169" pageHeight="827" math="0" shadow="0">
      <root>
        <mxCell id="0" />
        <mxCell id="1" parent="0" />
        <mxCell id="JF44CWTFTVHQpQi-gDEM-1" value="gml:pos" style="rounded=1;whiteSpace=wrap;html=1;fillColor=#dae8fc;strokeColor=#6c8ebf;" vertex="1" parent="1">
          <mxGeometry x="460" y="750" width="60" height="30" as="geometry" />
        </mxCell>
        <mxCell id="JF44CWTFTVHQpQi-gDEM-2" value="gml:posList" style="rounded=1;whiteSpace=wrap;html=1;fillColor=#dae8fc;strokeColor=#6c8ebf;" vertex="1" parent="1">
          <mxGeometry x="600" y="750" width="80" height="30" as="geometry" />
        </mxCell>
        <mxCell id="JF44CWTFTVHQpQi-gDEM-3" value="gml:coordinate" style="rounded=1;whiteSpace=wrap;html=1;fillColor=#d5e8d4;strokeColor=#82b366;" vertex="1" parent="1">
          <mxGeometry x="780" y="750" width="100" height="30" as="geometry" />
        </mxCell>
        <mxCell id="JF44CWTFTVHQpQi-gDEM-4" value="green rectangular boxes:&lt;br&gt;- defined in GML 3.2, but not regularly used in CityGML&lt;br&gt;- usually takes an ID" style="rounded=0;whiteSpace=wrap;html=1;fillColor=#d5e8d4;strokeColor=#82b366;" vertex="1" parent="1">
          <mxGeometry x="950" y="10" width="210" height="60" as="geometry" />
        </mxCell>
        <mxCell id="JF44CWTFTVHQpQi-gDEM-5" value="blue rectangular boxes:&lt;br&gt;- regularly used in CityGML&lt;br&gt;- usually takes an ID" style="rounded=0;whiteSpace=wrap;html=1;fillColor=#dae8fc;strokeColor=#6c8ebf;" vertex="1" parent="1">
          <mxGeometry x="950" y="80" width="210" height="50" as="geometry" />
        </mxCell>
        <mxCell id="JF44CWTFTVHQpQi-gDEM-6" value="gml:Point" style="rounded=0;whiteSpace=wrap;html=1;fillColor=#dae8fc;strokeColor=#6c8ebf;" vertex="1" parent="1">
          <mxGeometry x="400" y="680" width="60" height="30" as="geometry" />
        </mxCell>
        <mxCell id="JF44CWTFTVHQpQi-gDEM-7" value="gml:LinearRing" style="rounded=0;whiteSpace=wrap;html=1;fillColor=#dae8fc;strokeColor=#6c8ebf;" vertex="1" parent="1">
          <mxGeometry x="520" y="680" width="90" height="30" as="geometry" />
        </mxCell>
        <mxCell id="JF44CWTFTVHQpQi-gDEM-8" value="gml:LineString" style="rounded=0;whiteSpace=wrap;html=1;fillColor=#dae8fc;strokeColor=#6c8ebf;" vertex="1" parent="1">
          <mxGeometry x="680" y="680" width="90" height="30" as="geometry" />
        </mxCell>
        <mxCell id="JF44CWTFTVHQpQi-gDEM-9" value="green rectangular boxes:&lt;br&gt;- defined in GML 3.2, but not regularly used in CityGML&lt;br&gt;- usually takes NO ID" style="rounded=1;whiteSpace=wrap;html=1;fillColor=#d5e8d4;strokeColor=#82b366;" vertex="1" parent="1">
          <mxGeometry x="950" y="140" width="210" height="60" as="geometry" />
        </mxCell>
        <mxCell id="JF44CWTFTVHQpQi-gDEM-10" value="blue rectangular boxes:&lt;br&gt;- regularly used in CityGML&lt;br&gt;- usually takes NO ID" style="rounded=1;whiteSpace=wrap;html=1;fillColor=#dae8fc;strokeColor=#6c8ebf;" vertex="1" parent="1">
          <mxGeometry x="950" y="210" width="210" height="50" as="geometry" />
        </mxCell>
        <mxCell id="JF44CWTFTVHQpQi-gDEM-11" value="gml:Ring" style="rounded=0;whiteSpace=wrap;html=1;fillColor=#d5e8d4;strokeColor=#82b366;" vertex="1" parent="1">
          <mxGeometry x="840" y="680" width="100" height="30" as="geometry" />
        </mxCell>
        <mxCell id="JF44CWTFTVHQpQi-gDEM-12" value="" style="endArrow=classic;html=1;rounded=0;exitX=0.5;exitY=0;exitDx=0;exitDy=0;entryX=0.5;entryY=1;entryDx=0;entryDy=0;strokeColor=#FFB570;shadow=0;strokeWidth=2;" edge="1" parent="1" source="JF44CWTFTVHQpQi-gDEM-1" target="JF44CWTFTVHQpQi-gDEM-6">
          <mxGeometry width="50" height="50" relative="1" as="geometry">
            <mxPoint x="400" y="590" as="sourcePoint" />
            <mxPoint x="450" y="540" as="targetPoint" />
          </mxGeometry>
        </mxCell>
        <mxCell id="JF44CWTFTVHQpQi-gDEM-13" value="" style="endArrow=classic;html=1;rounded=0;exitX=0.5;exitY=0;exitDx=0;exitDy=0;entryX=0.5;entryY=1;entryDx=0;entryDy=0;strokeColor=#FFB570;strokeWidth=2;" edge="1" parent="1" source="JF44CWTFTVHQpQi-gDEM-1" target="JF44CWTFTVHQpQi-gDEM-7">
          <mxGeometry width="50" height="50" relative="1" as="geometry">
            <mxPoint x="500" y="760" as="sourcePoint" />
            <mxPoint x="440" y="710" as="targetPoint" />
          </mxGeometry>
        </mxCell>
        <mxCell id="JF44CWTFTVHQpQi-gDEM-14" value="" style="endArrow=classic;html=1;rounded=0;exitX=0.5;exitY=0;exitDx=0;exitDy=0;entryX=0.5;entryY=1;entryDx=0;entryDy=0;strokeColor=#FFB570;strokeWidth=2;" edge="1" parent="1" source="JF44CWTFTVHQpQi-gDEM-2" target="JF44CWTFTVHQpQi-gDEM-7">
          <mxGeometry width="50" height="50" relative="1" as="geometry">
            <mxPoint x="500" y="770" as="sourcePoint" />
            <mxPoint x="575" y="710" as="targetPoint" />
          </mxGeometry>
        </mxCell>
        <mxCell id="JF44CWTFTVHQpQi-gDEM-15" value="" style="endArrow=classic;html=1;rounded=0;entryX=0.5;entryY=1;entryDx=0;entryDy=0;strokeColor=#FFB570;strokeWidth=2;" edge="1" parent="1" target="JF44CWTFTVHQpQi-gDEM-8">
          <mxGeometry width="50" height="50" relative="1" as="geometry">
            <mxPoint x="640" y="750" as="sourcePoint" />
            <mxPoint x="575" y="710" as="targetPoint" />
          </mxGeometry>
        </mxCell>
        <mxCell id="JF44CWTFTVHQpQi-gDEM-16" value="core:referencePoint" style="rounded=1;whiteSpace=wrap;html=1;fillColor=#f8cecc;strokeColor=#b85450;" vertex="1" parent="1">
          <mxGeometry x="130" y="650" width="120" height="30" as="geometry" />
        </mxCell>
        <mxCell id="JF44CWTFTVHQpQi-gDEM-17" value="core:ImplicitGeometry" style="rounded=0;whiteSpace=wrap;html=1;fillColor=#f8cecc;strokeColor=#b85450;" vertex="1" parent="1">
          <mxGeometry x="50" y="600" width="120" height="30" as="geometry" />
        </mxCell>
        <mxCell id="JF44CWTFTVHQpQi-gDEM-18" value="" style="endArrow=classic;html=1;rounded=0;exitX=0.5;exitY=0;exitDx=0;exitDy=0;entryX=1;entryY=0.5;entryDx=0;entryDy=0;strokeColor=#FFB570;strokeWidth=2;" edge="1" parent="1" source="JF44CWTFTVHQpQi-gDEM-6" target="JF44CWTFTVHQpQi-gDEM-16">
          <mxGeometry width="50" height="50" relative="1" as="geometry">
            <mxPoint x="270" y="720" as="sourcePoint" />
            <mxPoint x="210" y="660" as="targetPoint" />
          </mxGeometry>
        </mxCell>
        <mxCell id="JF44CWTFTVHQpQi-gDEM-19" value="" style="endArrow=classic;html=1;rounded=0;exitX=0.5;exitY=0;exitDx=0;exitDy=0;entryX=0.5;entryY=1;entryDx=0;entryDy=0;strokeColor=#FFE6CC;" edge="1" parent="1" source="JF44CWTFTVHQpQi-gDEM-16" target="JF44CWTFTVHQpQi-gDEM-17">
          <mxGeometry width="50" height="50" relative="1" as="geometry">
            <mxPoint x="430" y="600" as="sourcePoint" />
            <mxPoint x="200" y="560" as="targetPoint" />
          </mxGeometry>
        </mxCell>
        <mxCell id="JF44CWTFTVHQpQi-gDEM-20" value="gml:pointMember" style="rounded=1;whiteSpace=wrap;html=1;fillColor=#dae8fc;strokeColor=#6c8ebf;" vertex="1" parent="1">
          <mxGeometry x="290" y="600" width="110" height="30" as="geometry" />
        </mxCell>
        <mxCell id="JF44CWTFTVHQpQi-gDEM-21" value="gml:exterior*" style="rounded=1;whiteSpace=wrap;html=1;fillColor=#dae8fc;strokeColor=#6c8ebf;" vertex="1" parent="1">
          <mxGeometry x="460" y="600" width="80" height="30" as="geometry" />
        </mxCell>
        <mxCell id="JF44CWTFTVHQpQi-gDEM-22" value="gml:interior" style="rounded=1;whiteSpace=wrap;html=1;fillColor=#dae8fc;strokeColor=#6c8ebf;" vertex="1" parent="1">
          <mxGeometry x="610" y="600" width="80" height="30" as="geometry" />
        </mxCell>
        <mxCell id="JF44CWTFTVHQpQi-gDEM-23" value="gml:curveMember" style="rounded=1;whiteSpace=wrap;html=1;fillColor=#dae8fc;strokeColor=#6c8ebf;" vertex="1" parent="1">
          <mxGeometry x="770" y="600" width="110" height="30" as="geometry" />
        </mxCell>
        <mxCell id="JF44CWTFTVHQpQi-gDEM-24" value="" style="endArrow=classic;html=1;rounded=0;exitX=0.5;exitY=0;exitDx=0;exitDy=0;entryX=0.5;entryY=1;entryDx=0;entryDy=0;strokeColor=#FFB570;strokeWidth=2;" edge="1" parent="1" source="JF44CWTFTVHQpQi-gDEM-6" target="JF44CWTFTVHQpQi-gDEM-20">
          <mxGeometry width="50" height="50" relative="1" as="geometry">
            <mxPoint x="500" y="690" as="sourcePoint" />
            <mxPoint x="440" y="640" as="targetPoint" />
          </mxGeometry>
        </mxCell>
        <mxCell id="JF44CWTFTVHQpQi-gDEM-25" value="" style="endArrow=classic;html=1;rounded=0;exitX=0.5;exitY=0;exitDx=0;exitDy=0;entryX=0.5;entryY=1;entryDx=0;entryDy=0;strokeColor=#FFB570;strokeWidth=2;" edge="1" parent="1" source="JF44CWTFTVHQpQi-gDEM-7" target="JF44CWTFTVHQpQi-gDEM-21">
          <mxGeometry width="50" height="50" relative="1" as="geometry">
            <mxPoint x="515" y="690" as="sourcePoint" />
            <mxPoint x="430" y="640" as="targetPoint" />
          </mxGeometry>
        </mxCell>
        <mxCell id="JF44CWTFTVHQpQi-gDEM-26" value="" style="endArrow=classic;html=1;rounded=0;exitX=0.5;exitY=0;exitDx=0;exitDy=0;entryX=0.5;entryY=1;entryDx=0;entryDy=0;strokeColor=#FFB570;strokeWidth=2;" edge="1" parent="1" source="JF44CWTFTVHQpQi-gDEM-7" target="JF44CWTFTVHQpQi-gDEM-22">
          <mxGeometry width="50" height="50" relative="1" as="geometry">
            <mxPoint x="635" y="690" as="sourcePoint" />
            <mxPoint x="570" y="640" as="targetPoint" />
          </mxGeometry>
        </mxCell>
        <mxCell id="JF44CWTFTVHQpQi-gDEM-27" value="" style="endArrow=classic;html=1;rounded=0;exitX=0.5;exitY=0;exitDx=0;exitDy=0;entryX=0.5;entryY=1;entryDx=0;entryDy=0;strokeColor=#FFB570;strokeWidth=2;" edge="1" parent="1" source="JF44CWTFTVHQpQi-gDEM-8" target="JF44CWTFTVHQpQi-gDEM-23">
          <mxGeometry width="50" height="50" relative="1" as="geometry">
            <mxPoint x="640" y="690" as="sourcePoint" />
            <mxPoint x="725" y="640" as="targetPoint" />
          </mxGeometry>
        </mxCell>
        <mxCell id="JF44CWTFTVHQpQi-gDEM-28" value="gml:MultiPoint" style="rounded=0;whiteSpace=wrap;html=1;fillColor=#dae8fc;strokeColor=#6c8ebf;" vertex="1" parent="1">
          <mxGeometry x="230" y="520" width="90" height="30" as="geometry" />
        </mxCell>
        <mxCell id="JF44CWTFTVHQpQi-gDEM-29" value="gml:Triangle" style="rounded=0;whiteSpace=wrap;html=1;fillColor=#dae8fc;strokeColor=#6c8ebf;" vertex="1" parent="1">
          <mxGeometry x="360" y="520" width="90" height="30" as="geometry" />
        </mxCell>
        <mxCell id="JF44CWTFTVHQpQi-gDEM-30" value="gml:PolygonPatch" style="rounded=0;whiteSpace=wrap;html=1;fillColor=#dae8fc;strokeColor=#6c8ebf;" vertex="1" parent="1">
          <mxGeometry x="484.5" y="520" width="115.5" height="30" as="geometry" />
        </mxCell>
        <mxCell id="JF44CWTFTVHQpQi-gDEM-31" value="gml:Polygon" style="rounded=0;whiteSpace=wrap;html=1;fillColor=#dae8fc;strokeColor=#6c8ebf;" vertex="1" parent="1">
          <mxGeometry x="630" y="520" width="115.5" height="30" as="geometry" />
        </mxCell>
        <mxCell id="JF44CWTFTVHQpQi-gDEM-32" value="gml:MultiCurve" style="rounded=0;whiteSpace=wrap;html=1;fillColor=#dae8fc;strokeColor=#6c8ebf;" vertex="1" parent="1">
          <mxGeometry x="772.25" y="520" width="115.5" height="30" as="geometry" />
        </mxCell>
        <mxCell id="JF44CWTFTVHQpQi-gDEM-33" value="pcl:points" style="rounded=1;whiteSpace=wrap;html=1;fillColor=#f8cecc;strokeColor=#b85450;" vertex="1" parent="1">
          <mxGeometry x="90" y="480" width="70" height="30" as="geometry" />
        </mxCell>
        <mxCell id="JF44CWTFTVHQpQi-gDEM-34" value="pcl:PointCloud" style="rounded=0;whiteSpace=wrap;html=1;fillColor=#f8cecc;strokeColor=#b85450;" vertex="1" parent="1">
          <mxGeometry x="20" y="440" width="100" height="30" as="geometry" />
        </mxCell>
        <mxCell id="JF44CWTFTVHQpQi-gDEM-35" value="" style="endArrow=classic;html=1;rounded=0;exitX=0.5;exitY=0;exitDx=0;exitDy=0;entryX=0.5;entryY=1;entryDx=0;entryDy=0;strokeColor=#FFB570;strokeWidth=2;" edge="1" parent="1" source="JF44CWTFTVHQpQi-gDEM-33" target="JF44CWTFTVHQpQi-gDEM-34">
          <mxGeometry width="50" height="50" relative="1" as="geometry">
            <mxPoint x="390" y="430" as="sourcePoint" />
            <mxPoint x="160" y="390" as="targetPoint" />
          </mxGeometry>
        </mxCell>
        <mxCell id="JF44CWTFTVHQpQi-gDEM-37" value="" style="endArrow=classic;html=1;rounded=0;exitX=0.5;exitY=0;exitDx=0;exitDy=0;entryX=0.5;entryY=1;entryDx=0;entryDy=0;strokeColor=#FFB570;strokeWidth=2;" edge="1" parent="1" source="JF44CWTFTVHQpQi-gDEM-28" target="JF44CWTFTVHQpQi-gDEM-33">
          <mxGeometry width="50" height="50" relative="1" as="geometry">
            <mxPoint x="350" y="490" as="sourcePoint" />
            <mxPoint x="270" y="470" as="targetPoint" />
          </mxGeometry>
        </mxCell>
        <mxCell id="JF44CWTFTVHQpQi-gDEM-38" value="" style="endArrow=classic;html=1;rounded=0;exitX=0.5;exitY=0;exitDx=0;exitDy=0;entryX=0.5;entryY=1;entryDx=0;entryDy=0;strokeColor=#FFB570;strokeWidth=2;" edge="1" parent="1" source="JF44CWTFTVHQpQi-gDEM-20" target="JF44CWTFTVHQpQi-gDEM-28">
          <mxGeometry width="50" height="50" relative="1" as="geometry">
            <mxPoint x="270" y="590" as="sourcePoint" />
            <mxPoint x="170" y="580" as="targetPoint" />
          </mxGeometry>
        </mxCell>
        <mxCell id="JF44CWTFTVHQpQi-gDEM-39" value="" style="endArrow=classic;html=1;rounded=0;exitX=0.5;exitY=0;exitDx=0;exitDy=0;entryX=0.5;entryY=1;entryDx=0;entryDy=0;strokeColor=#FFB570;strokeWidth=2;" edge="1" parent="1" source="JF44CWTFTVHQpQi-gDEM-21" target="JF44CWTFTVHQpQi-gDEM-29">
          <mxGeometry width="50" height="50" relative="1" as="geometry">
            <mxPoint x="460" y="610" as="sourcePoint" />
            <mxPoint x="390" y="560" as="targetPoint" />
          </mxGeometry>
        </mxCell>
        <mxCell id="JF44CWTFTVHQpQi-gDEM-40" value="" style="endArrow=classic;html=1;rounded=0;exitX=0.5;exitY=0;exitDx=0;exitDy=0;entryX=0.5;entryY=1;entryDx=0;entryDy=0;strokeColor=#FFB570;strokeWidth=2;" edge="1" parent="1" source="JF44CWTFTVHQpQi-gDEM-21" target="JF44CWTFTVHQpQi-gDEM-30">
          <mxGeometry width="50" height="50" relative="1" as="geometry">
            <mxPoint x="510" y="610" as="sourcePoint" />
            <mxPoint x="415" y="560" as="targetPoint" />
          </mxGeometry>
        </mxCell>
        <mxCell id="JF44CWTFTVHQpQi-gDEM-41" value="" style="endArrow=classic;html=1;rounded=0;exitX=0.5;exitY=0;exitDx=0;exitDy=0;entryX=0.5;entryY=1;entryDx=0;entryDy=0;strokeColor=#FFB570;strokeWidth=2;" edge="1" parent="1" source="JF44CWTFTVHQpQi-gDEM-21" target="JF44CWTFTVHQpQi-gDEM-31">
          <mxGeometry width="50" height="50" relative="1" as="geometry">
            <mxPoint x="510" y="610" as="sourcePoint" />
            <mxPoint x="562" y="560" as="targetPoint" />
          </mxGeometry>
        </mxCell>
        <mxCell id="JF44CWTFTVHQpQi-gDEM-42" value="" style="endArrow=classic;html=1;rounded=0;exitX=0.5;exitY=0;exitDx=0;exitDy=0;entryX=0.5;entryY=1;entryDx=0;entryDy=0;strokeColor=#FFB570;strokeWidth=2;" edge="1" parent="1" source="JF44CWTFTVHQpQi-gDEM-23" target="JF44CWTFTVHQpQi-gDEM-32">
          <mxGeometry width="50" height="50" relative="1" as="geometry">
            <mxPoint x="510" y="610" as="sourcePoint" />
            <mxPoint x="722" y="560" as="targetPoint" />
          </mxGeometry>
        </mxCell>
        <mxCell id="JF44CWTFTVHQpQi-gDEM-44" value="core: lodXTerrainIntersection" style="rounded=0;whiteSpace=wrap;html=1;fillColor=#f8cecc;strokeColor=#b85450;" vertex="1" parent="1">
          <mxGeometry x="850" y="470" width="170" height="30" as="geometry" />
        </mxCell>
        <mxCell id="JF44CWTFTVHQpQi-gDEM-45" value="" style="endArrow=classic;html=1;rounded=0;exitX=0.5;exitY=0;exitDx=0;exitDy=0;entryX=0.5;entryY=1;entryDx=0;entryDy=0;strokeColor=#FFB570;strokeWidth=2;" edge="1" parent="1" source="JF44CWTFTVHQpQi-gDEM-32" target="JF44CWTFTVHQpQi-gDEM-44">
          <mxGeometry width="50" height="50" relative="1" as="geometry">
            <mxPoint x="995" y="500" as="sourcePoint" />
            <mxPoint x="1020" y="380" as="targetPoint" />
          </mxGeometry>
        </mxCell>
        <mxCell id="JF44CWTFTVHQpQi-gDEM-47" value="core:lodXMultiCurve" style="rounded=0;whiteSpace=wrap;html=1;fillColor=#f8cecc;strokeColor=#b85450;" vertex="1" parent="1">
          <mxGeometry x="1030" y="470" width="120" height="30" as="geometry" />
        </mxCell>
        <mxCell id="JF44CWTFTVHQpQi-gDEM-48" value="" style="endArrow=classic;html=1;rounded=0;exitX=0.5;exitY=0;exitDx=0;exitDy=0;entryX=0.5;entryY=1;entryDx=0;entryDy=0;strokeColor=#FFB570;strokeWidth=2;" edge="1" parent="1" source="JF44CWTFTVHQpQi-gDEM-32" target="JF44CWTFTVHQpQi-gDEM-47">
          <mxGeometry width="50" height="50" relative="1" as="geometry">
            <mxPoint x="1105" y="470" as="sourcePoint" />
            <mxPoint x="1140" y="380" as="targetPoint" />
          </mxGeometry>
        </mxCell>
        <mxCell id="JF44CWTFTVHQpQi-gDEM-49" value="gml:Rectangle" style="rounded=0;whiteSpace=wrap;html=1;fillColor=#d5e8d4;strokeColor=#82b366;" vertex="1" parent="1">
          <mxGeometry x="920" y="520" width="90" height="30" as="geometry" />
        </mxCell>
        <mxCell id="JF44CWTFTVHQpQi-gDEM-50" value="gml:Cylinder" style="rounded=0;whiteSpace=wrap;html=1;fillColor=#d5e8d4;strokeColor=#82b366;" vertex="1" parent="1">
          <mxGeometry x="1030" y="520" width="90" height="30" as="geometry" />
        </mxCell>
        <mxCell id="JF44CWTFTVHQpQi-gDEM-51" value="gml:Sphere" style="rounded=0;whiteSpace=wrap;html=1;fillColor=#d5e8d4;strokeColor=#82b366;" vertex="1" parent="1">
          <mxGeometry x="140" y="520" width="70" height="30" as="geometry" />
        </mxCell>
        <mxCell id="JF44CWTFTVHQpQi-gDEM-52" value="gml:Cone" style="rounded=0;whiteSpace=wrap;html=1;fillColor=#d5e8d4;strokeColor=#82b366;" vertex="1" parent="1">
          <mxGeometry x="50" y="520" width="70" height="30" as="geometry" />
        </mxCell>
        <mxCell id="JF44CWTFTVHQpQi-gDEM-53" value="gml:trianglePatches" style="rounded=1;whiteSpace=wrap;html=1;fillColor=#dae8fc;strokeColor=#6c8ebf;" vertex="1" parent="1">
          <mxGeometry x="300" y="440" width="120" height="30" as="geometry" />
        </mxCell>
        <mxCell id="JF44CWTFTVHQpQi-gDEM-54" value="gml:patches" style="rounded=1;whiteSpace=wrap;html=1;fillColor=#dae8fc;strokeColor=#6c8ebf;" vertex="1" parent="1">
          <mxGeometry x="460" y="440" width="110" height="30" as="geometry" />
        </mxCell>
        <mxCell id="JF44CWTFTVHQpQi-gDEM-55" value="gml:surfaceMember*" style="rounded=1;whiteSpace=wrap;html=1;fillColor=#dae8fc;strokeColor=#6c8ebf;" vertex="1" parent="1">
          <mxGeometry x="615" y="440" width="125" height="30" as="geometry" />
        </mxCell>
        <mxCell id="JF44CWTFTVHQpQi-gDEM-56" value="gml:TriangulatedSurface" style="rounded=0;whiteSpace=wrap;html=1;fillColor=#dae8fc;strokeColor=#6c8ebf;" vertex="1" parent="1">
          <mxGeometry x="170" y="360" width="150" height="30" as="geometry" />
        </mxCell>
        <mxCell id="JF44CWTFTVHQpQi-gDEM-57" value="" style="endArrow=classic;html=1;rounded=0;exitX=0.5;exitY=0;exitDx=0;exitDy=0;entryX=0.5;entryY=1;entryDx=0;entryDy=0;strokeColor=#FFB570;strokeWidth=2;" edge="1" parent="1" source="JF44CWTFTVHQpQi-gDEM-29" target="JF44CWTFTVHQpQi-gDEM-53">
          <mxGeometry width="50" height="50" relative="1" as="geometry">
            <mxPoint x="660" y="360" as="sourcePoint" />
            <mxPoint x="710" y="310" as="targetPoint" />
          </mxGeometry>
        </mxCell>
        <mxCell id="JF44CWTFTVHQpQi-gDEM-58" value="" style="endArrow=classic;html=1;rounded=0;exitX=0.5;exitY=0;exitDx=0;exitDy=0;entryX=0.5;entryY=1;entryDx=0;entryDy=0;strokeColor=#FFB570;strokeWidth=2;" edge="1" parent="1" source="JF44CWTFTVHQpQi-gDEM-30" target="JF44CWTFTVHQpQi-gDEM-54">
          <mxGeometry width="50" height="50" relative="1" as="geometry">
            <mxPoint x="415" y="530" as="sourcePoint" />
            <mxPoint x="375" y="480" as="targetPoint" />
          </mxGeometry>
        </mxCell>
        <mxCell id="JF44CWTFTVHQpQi-gDEM-59" value="" style="endArrow=classic;html=1;rounded=0;exitX=0.5;exitY=0;exitDx=0;exitDy=0;entryX=0.5;entryY=1;entryDx=0;entryDy=0;strokeColor=#FFB570;strokeWidth=2;" edge="1" parent="1" source="JF44CWTFTVHQpQi-gDEM-31" target="JF44CWTFTVHQpQi-gDEM-55">
          <mxGeometry width="50" height="50" relative="1" as="geometry">
            <mxPoint x="552" y="530" as="sourcePoint" />
            <mxPoint x="525" y="480" as="targetPoint" />
          </mxGeometry>
        </mxCell>
        <mxCell id="JF44CWTFTVHQpQi-gDEM-60" value="" style="endArrow=classic;html=1;rounded=0;exitX=0.5;exitY=0;exitDx=0;exitDy=0;entryX=0.5;entryY=1;entryDx=0;entryDy=0;strokeColor=#FFB570;strokeWidth=2;" edge="1" parent="1" source="JF44CWTFTVHQpQi-gDEM-22" target="JF44CWTFTVHQpQi-gDEM-31">
          <mxGeometry width="50" height="50" relative="1" as="geometry">
            <mxPoint x="720" y="610" as="sourcePoint" />
            <mxPoint x="725" y="560" as="targetPoint" />
          </mxGeometry>
        </mxCell>
        <mxCell id="JF44CWTFTVHQpQi-gDEM-61" value="" style="endArrow=classic;html=1;rounded=0;exitX=0.5;exitY=0;exitDx=0;exitDy=0;entryX=0.5;entryY=1;entryDx=0;entryDy=0;strokeColor=#FFB570;strokeWidth=2;" edge="1" parent="1" source="JF44CWTFTVHQpQi-gDEM-22" target="JF44CWTFTVHQpQi-gDEM-30">
          <mxGeometry width="50" height="50" relative="1" as="geometry">
            <mxPoint x="660" y="610" as="sourcePoint" />
            <mxPoint x="698" y="560" as="targetPoint" />
          </mxGeometry>
        </mxCell>
        <mxCell id="JF44CWTFTVHQpQi-gDEM-62" value="gml:curveMembers" style="rounded=1;whiteSpace=wrap;html=1;fillColor=#d5e8d4;strokeColor=#82b366;" vertex="1" parent="1">
          <mxGeometry x="920" y="600" width="110" height="30" as="geometry" />
        </mxCell>
        <mxCell id="JF44CWTFTVHQpQi-gDEM-63" value="" style="endArrow=classic;html=1;rounded=0;exitX=0.5;exitY=0;exitDx=0;exitDy=0;entryX=0.5;entryY=1;entryDx=0;entryDy=0;strokeColor=#FFB570;strokeWidth=2;" edge="1" parent="1" source="JF44CWTFTVHQpQi-gDEM-53" target="JF44CWTFTVHQpQi-gDEM-56">
          <mxGeometry width="50" height="50" relative="1" as="geometry">
            <mxPoint x="415" y="530" as="sourcePoint" />
            <mxPoint x="375" y="480" as="targetPoint" />
          </mxGeometry>
        </mxCell>
        <mxCell id="JF44CWTFTVHQpQi-gDEM-64" value="dem:tin" style="rounded=1;whiteSpace=wrap;html=1;fillColor=#f8cecc;strokeColor=#b85450;" vertex="1" parent="1">
          <mxGeometry x="70" y="320" width="70" height="30" as="geometry" />
        </mxCell>
        <mxCell id="JF44CWTFTVHQpQi-gDEM-65" value="dem:TINRelief" style="rounded=0;whiteSpace=wrap;html=1;fillColor=#f8cecc;strokeColor=#b85450;" vertex="1" parent="1">
          <mxGeometry y="280" width="100" height="30" as="geometry" />
        </mxCell>
        <mxCell id="JF44CWTFTVHQpQi-gDEM-66" value="" style="endArrow=classic;html=1;rounded=0;exitX=0.5;exitY=0;exitDx=0;exitDy=0;entryX=0.5;entryY=1;entryDx=0;entryDy=0;strokeColor=#FFB570;strokeWidth=2;" edge="1" parent="1" source="JF44CWTFTVHQpQi-gDEM-64" target="JF44CWTFTVHQpQi-gDEM-65">
          <mxGeometry width="50" height="50" relative="1" as="geometry">
            <mxPoint x="370" y="270" as="sourcePoint" />
            <mxPoint x="140" y="230" as="targetPoint" />
          </mxGeometry>
        </mxCell>
        <mxCell id="JF44CWTFTVHQpQi-gDEM-67" value="" style="endArrow=classic;html=1;rounded=0;exitX=0.5;exitY=0;exitDx=0;exitDy=0;entryX=0.5;entryY=1;entryDx=0;entryDy=0;strokeColor=#FFB570;strokeWidth=2;" edge="1" parent="1" source="JF44CWTFTVHQpQi-gDEM-56" target="JF44CWTFTVHQpQi-gDEM-64">
          <mxGeometry width="50" height="50" relative="1" as="geometry">
            <mxPoint x="115" y="330" as="sourcePoint" />
            <mxPoint x="60" y="320" as="targetPoint" />
          </mxGeometry>
        </mxCell>
        <mxCell id="JF44CWTFTVHQpQi-gDEM-68" value="gml:Shell" style="rounded=0;whiteSpace=wrap;html=1;fillColor=#dae8fc;strokeColor=#6c8ebf;" vertex="1" parent="1">
          <mxGeometry x="490" y="360" width="80" height="30" as="geometry" />
        </mxCell>
        <mxCell id="JF44CWTFTVHQpQi-gDEM-69" value="gml:Surface" style="rounded=0;whiteSpace=wrap;html=1;fillColor=#dae8fc;strokeColor=#6c8ebf;" vertex="1" parent="1">
          <mxGeometry x="370" y="360" width="80" height="30" as="geometry" />
        </mxCell>
        <mxCell id="JF44CWTFTVHQpQi-gDEM-70" value="gml:CompositeSurface" style="rounded=0;whiteSpace=wrap;html=1;fillColor=#dae8fc;strokeColor=#6c8ebf;" vertex="1" parent="1">
          <mxGeometry x="600" y="360" width="140" height="30" as="geometry" />
        </mxCell>
        <mxCell id="JF44CWTFTVHQpQi-gDEM-71" value="gml:MultiSurface*" style="rounded=0;whiteSpace=wrap;html=1;fillColor=#dae8fc;strokeColor=#6c8ebf;" vertex="1" parent="1">
          <mxGeometry x="780" y="360" width="110" height="30" as="geometry" />
        </mxCell>
        <mxCell id="JF44CWTFTVHQpQi-gDEM-72" value="" style="endArrow=classic;html=1;rounded=0;exitX=0.5;exitY=0;exitDx=0;exitDy=0;entryX=0.5;entryY=1;entryDx=0;entryDy=0;strokeColor=#FFB570;strokeWidth=2;" edge="1" parent="1" source="JF44CWTFTVHQpQi-gDEM-55" target="JF44CWTFTVHQpQi-gDEM-70">
          <mxGeometry width="50" height="50" relative="1" as="geometry">
            <mxPoint x="1115" y="390" as="sourcePoint" />
            <mxPoint x="1000" y="340" as="targetPoint" />
          </mxGeometry>
        </mxCell>
        <mxCell id="JF44CWTFTVHQpQi-gDEM-73" value="" style="endArrow=classic;html=1;rounded=0;exitX=0.5;exitY=0;exitDx=0;exitDy=0;entryX=0.5;entryY=1;entryDx=0;entryDy=0;strokeColor=#FFB570;strokeWidth=2;" edge="1" parent="1" source="JF44CWTFTVHQpQi-gDEM-55" target="JF44CWTFTVHQpQi-gDEM-68">
          <mxGeometry width="50" height="50" relative="1" as="geometry">
            <mxPoint x="985" y="450" as="sourcePoint" />
            <mxPoint x="870" y="400" as="targetPoint" />
          </mxGeometry>
        </mxCell>
        <mxCell id="JF44CWTFTVHQpQi-gDEM-74" value="" style="endArrow=classic;html=1;rounded=0;exitX=0.5;exitY=0;exitDx=0;exitDy=0;entryX=0.5;entryY=1;entryDx=0;entryDy=0;strokeColor=#FFB570;strokeWidth=2;" edge="1" parent="1" source="JF44CWTFTVHQpQi-gDEM-55" target="JF44CWTFTVHQpQi-gDEM-71">
          <mxGeometry width="50" height="50" relative="1" as="geometry">
            <mxPoint x="1135" y="410" as="sourcePoint" />
            <mxPoint x="1020" y="360" as="targetPoint" />
          </mxGeometry>
        </mxCell>
        <mxCell id="JF44CWTFTVHQpQi-gDEM-75" value="" style="endArrow=classic;html=1;rounded=0;exitX=0.5;exitY=0;exitDx=0;exitDy=0;entryX=0.5;entryY=1;entryDx=0;entryDy=0;strokeColor=#FFB570;strokeWidth=2;" edge="1" parent="1" source="JF44CWTFTVHQpQi-gDEM-54" target="JF44CWTFTVHQpQi-gDEM-69">
          <mxGeometry width="50" height="50" relative="1" as="geometry">
            <mxPoint x="688" y="450" as="sourcePoint" />
            <mxPoint x="540" y="400" as="targetPoint" />
          </mxGeometry>
        </mxCell>
        <mxCell id="JF44CWTFTVHQpQi-gDEM-76" value="gml:surfaceMember*" style="rounded=1;whiteSpace=wrap;html=1;fillColor=#dae8fc;strokeColor=#6c8ebf;" vertex="1" parent="1">
          <mxGeometry x="570" y="280" width="125" height="30" as="geometry" />
        </mxCell>
        <mxCell id="JF44CWTFTVHQpQi-gDEM-77" value="gml:exterior*" style="rounded=1;whiteSpace=wrap;html=1;fillColor=#dae8fc;strokeColor=#6c8ebf;" vertex="1" parent="1">
          <mxGeometry x="440" y="280" width="80" height="30" as="geometry" />
        </mxCell>
        <mxCell id="JF44CWTFTVHQpQi-gDEM-78" value="" style="endArrow=classic;html=1;rounded=0;exitX=0.5;exitY=0;exitDx=0;exitDy=0;entryX=0.5;entryY=1;entryDx=0;entryDy=0;strokeColor=#FFB570;strokeWidth=2;" edge="1" parent="1" source="JF44CWTFTVHQpQi-gDEM-70" target="JF44CWTFTVHQpQi-gDEM-76">
          <mxGeometry width="50" height="50" relative="1" as="geometry">
            <mxPoint x="688" y="450" as="sourcePoint" />
            <mxPoint x="680" y="400" as="targetPoint" />
          </mxGeometry>
        </mxCell>
        <mxCell id="JF44CWTFTVHQpQi-gDEM-79" value="" style="endArrow=classic;html=1;rounded=0;exitX=0.5;exitY=0;exitDx=0;exitDy=0;entryX=0.5;entryY=1;entryDx=0;entryDy=0;strokeColor=#FFB570;strokeWidth=2;" edge="1" parent="1" source="JF44CWTFTVHQpQi-gDEM-68" target="JF44CWTFTVHQpQi-gDEM-77">
          <mxGeometry width="50" height="50" relative="1" as="geometry">
            <mxPoint x="680" y="370" as="sourcePoint" />
            <mxPoint x="643" y="320" as="targetPoint" />
          </mxGeometry>
        </mxCell>
        <mxCell id="JF44CWTFTVHQpQi-gDEM-80" value="gml:MultiSurface*" style="rounded=0;whiteSpace=wrap;html=1;fillColor=#dae8fc;strokeColor=#6c8ebf;" vertex="1" parent="1">
          <mxGeometry x="550" y="200" width="110" height="30" as="geometry" />
        </mxCell>
        <mxCell id="JF44CWTFTVHQpQi-gDEM-81" value="" style="endArrow=classic;html=1;rounded=0;exitX=0.5;exitY=0;exitDx=0;exitDy=0;entryX=0.5;entryY=1;entryDx=0;entryDy=0;strokeColor=#FFB570;strokeWidth=2;" edge="1" parent="1" source="JF44CWTFTVHQpQi-gDEM-76" target="JF44CWTFTVHQpQi-gDEM-80">
          <mxGeometry width="50" height="50" relative="1" as="geometry">
            <mxPoint x="680" y="290" as="sourcePoint" />
            <mxPoint x="643" y="240" as="targetPoint" />
          </mxGeometry>
        </mxCell>
        <mxCell id="JF44CWTFTVHQpQi-gDEM-82" value="gml:Solid" style="rounded=0;whiteSpace=wrap;html=1;fillColor=#dae8fc;strokeColor=#6c8ebf;" vertex="1" parent="1">
          <mxGeometry x="390" y="200" width="110" height="30" as="geometry" />
        </mxCell>
        <mxCell id="JF44CWTFTVHQpQi-gDEM-83" value="" style="endArrow=classic;html=1;rounded=0;exitX=0.5;exitY=0;exitDx=0;exitDy=0;entryX=0.5;entryY=1;entryDx=0;entryDy=0;strokeColor=#FFB570;strokeWidth=2;" edge="1" parent="1" source="JF44CWTFTVHQpQi-gDEM-77" target="JF44CWTFTVHQpQi-gDEM-82">
          <mxGeometry width="50" height="50" relative="1" as="geometry">
            <mxPoint x="643" y="290" as="sourcePoint" />
            <mxPoint x="615" y="240" as="targetPoint" />
          </mxGeometry>
        </mxCell>
        <mxCell id="JF44CWTFTVHQpQi-gDEM-84" value="gml:interior*" style="rounded=1;whiteSpace=wrap;html=1;fillColor=#d5e8d4;strokeColor=#82b366;" vertex="1" parent="1">
          <mxGeometry x="320" y="280" width="80" height="30" as="geometry" />
        </mxCell>
        <mxCell id="JF44CWTFTVHQpQi-gDEM-85" value="core:lodXMultiSurface" style="rounded=0;whiteSpace=wrap;html=1;fillColor=#f8cecc;strokeColor=#b85450;" vertex="1" parent="1">
          <mxGeometry x="680" y="155" width="140" height="30" as="geometry" />
        </mxCell>
        <mxCell id="JF44CWTFTVHQpQi-gDEM-88" value="" style="endArrow=classic;html=1;rounded=0;exitX=0.5;exitY=0;exitDx=0;exitDy=0;entryX=0.5;entryY=1;entryDx=0;entryDy=0;strokeColor=#FFB570;strokeWidth=2;" edge="1" parent="1" source="JF44CWTFTVHQpQi-gDEM-80" target="JF44CWTFTVHQpQi-gDEM-85">
          <mxGeometry width="50" height="50" relative="1" as="geometry">
            <mxPoint x="643" y="290" as="sourcePoint" />
            <mxPoint x="615" y="240" as="targetPoint" />
          </mxGeometry>
        </mxCell>
        <mxCell id="JF44CWTFTVHQpQi-gDEM-89" value="" style="endArrow=classic;html=1;rounded=0;exitX=0.5;exitY=0;exitDx=0;exitDy=0;entryX=0.5;entryY=1;entryDx=0;entryDy=0;strokeColor=#FFB570;strokeWidth=2;" edge="1" parent="1" source="JF44CWTFTVHQpQi-gDEM-71" target="JF44CWTFTVHQpQi-gDEM-85">
          <mxGeometry width="50" height="50" relative="1" as="geometry">
            <mxPoint x="615" y="210" as="sourcePoint" />
            <mxPoint x="830" y="190" as="targetPoint" />
          </mxGeometry>
        </mxCell>
        <mxCell id="JF44CWTFTVHQpQi-gDEM-90" value="core:lodXSolid" style="rounded=0;whiteSpace=wrap;html=1;fillColor=#f8cecc;strokeColor=#b85450;" vertex="1" parent="1">
          <mxGeometry x="280" y="155" width="100" height="30" as="geometry" />
        </mxCell>
        <mxCell id="JF44CWTFTVHQpQi-gDEM-91" value="" style="endArrow=classic;html=1;rounded=0;exitX=0.5;exitY=0;exitDx=0;exitDy=0;entryX=0.5;entryY=1;entryDx=0;entryDy=0;strokeColor=#FFB570;strokeWidth=2;" edge="1" parent="1" source="JF44CWTFTVHQpQi-gDEM-82" target="JF44CWTFTVHQpQi-gDEM-90">
          <mxGeometry width="50" height="50" relative="1" as="geometry">
            <mxPoint x="490" y="290" as="sourcePoint" />
            <mxPoint x="455" y="240" as="targetPoint" />
          </mxGeometry>
        </mxCell>
        <mxCell id="JF44CWTFTVHQpQi-gDEM-92" value="" style="endArrow=classic;html=1;rounded=0;exitX=0.5;exitY=0;exitDx=0;exitDy=0;entryX=0.5;entryY=1;entryDx=0;entryDy=0;strokeColor=#FFB570;strokeWidth=2;" edge="1" parent="1" source="JF44CWTFTVHQpQi-gDEM-69" target="JF44CWTFTVHQpQi-gDEM-76">
          <mxGeometry width="50" height="50" relative="1" as="geometry">
            <mxPoint x="540" y="370" as="sourcePoint" />
            <mxPoint x="490" y="320" as="targetPoint" />
          </mxGeometry>
        </mxCell>
        <mxCell id="JF44CWTFTVHQpQi-gDEM-93" value="red rectangular boxes:&lt;br&gt;- defined in CityGML modules&lt;br&gt;- usually takes an ID" style="rounded=0;whiteSpace=wrap;html=1;fillColor=#f8cecc;strokeColor=#b85450;" vertex="1" parent="1">
          <mxGeometry x="950" y="270" width="210" height="50" as="geometry" />
        </mxCell>
        <mxCell id="JF44CWTFTVHQpQi-gDEM-94" value="red rectangular boxes:&lt;br&gt;- defined in CityGML modules&lt;br&gt;- usually takes NO ID" style="rounded=1;whiteSpace=wrap;html=1;fillColor=#f8cecc;strokeColor=#b85450;" vertex="1" parent="1">
          <mxGeometry x="950" y="330" width="210" height="50" as="geometry" />
        </mxCell>
        <mxCell id="JF44CWTFTVHQpQi-gDEM-95" value="* : may repeat in nested structure" style="rounded=0;whiteSpace=wrap;html=1;" vertex="1" parent="1">
          <mxGeometry x="950" y="390" width="210" height="20" as="geometry" />
        </mxCell>
        <mxCell id="JF44CWTFTVHQpQi-gDEM-96" value="&lt;font style=&quot;&quot;&gt;&lt;b style=&quot;font-size: 18px;&quot;&gt;Most Used GML Geometries in CityGML Models&lt;/b&gt;&lt;br&gt;&lt;font style=&quot;font-size: 14px;&quot;&gt;-Reverse Visualization-&lt;/font&gt;&lt;br&gt;&lt;/font&gt;" style="text;html=1;strokeColor=none;fillColor=#647687;align=center;verticalAlign=middle;whiteSpace=wrap;rounded=0;fontColor=#ffffff;" vertex="1" parent="1">
          <mxGeometry x="307.5" y="15" width="445" height="50" as="geometry" />
        </mxCell>
        <mxCell id="JF44CWTFTVHQpQi-gDEM-97" value="&lt;font style=&quot;font-size: 9px;&quot;&gt;Sources: OpenGeoSpatial CityGML Encoding Sample Files, SaveNow Project, Brandenburg CityGML datasets&lt;/font&gt;" style="text;html=1;strokeColor=none;fillColor=#eeeeee;align=left;verticalAlign=middle;whiteSpace=wrap;rounded=0;" vertex="1" parent="1">
          <mxGeometry x="20" y="770" width="240" height="30" as="geometry" />
        </mxCell>
        <mxCell id="JF44CWTFTVHQpQi-gDEM-98" value="&lt;font style=&quot;font-size: 9px;&quot;&gt;M. Kendir, 2024, TUM Geoinformatics&lt;/font&gt;" style="text;html=1;strokeColor=none;fillColor=#eeeeee;align=right;verticalAlign=middle;whiteSpace=wrap;rounded=0;" vertex="1" parent="1">
          <mxGeometry x="980" y="770" width="170" height="30" as="geometry" />
        </mxCell>
      </root>
    </mxGraphModel>
  </diagram>
</mxfile>
